<svg xmlns="http://www.w3.org/2000/svg" width="148.336" height="49.571" viewBox="0 0 148.336 49.571"><defs><style>.a{fill:#cd0b1b;}.b,.c{fill:#fff;}.c{font-size:32px;font-family:Poppins-Medium, Poppins;font-weight:500;}</style></defs><path class="a" d="M40.206,56.833H35.934a9.825,9.825,0,0,1-9.825-9.825V29.644a.681.681,0,0,1,.682-.681H49.35a.681.681,0,0,1,.681.681V47.008a9.825,9.825,0,0,1-9.825,9.825" transform="translate(-11.506 -12.764)"/><path class="b" d="M51.941,45.681l-7.662-9.131-1.257-1.5-4.5-5.361v2.634l2.107,2.512h0l3.84,4.576-3.843-2.219-1.794-1.036-.448-.258-.039-.022-1.795-1.037-4.317-2.492-.011-.006.006-.015,0-.011a6.171,6.171,0,0,0,0-4.583l0-.011a6.143,6.143,0,0,0-.864-1.494l-.254-.324h-.018a6.115,6.115,0,0,0-3.714-1.977l-.016,0V0L23.231,11.355l-.028.077-.668,1.838L21.468,16.2h1.8l.521-1.432.669-1.837.362-1L25.67,9.6v14.32l-.015,0-.016,0a6.124,6.124,0,0,0-3.961,2.287l-.01.012a6.172,6.172,0,0,0-1.221,4.838,6.074,6.074,0,0,0,.357,1.261.094.094,0,0,0,.007.016L20,32.813l-3.509,2.026-1.728,1-.025.015L0,44.357l17.553-3.1a9.865,9.865,0,0,1-1.253-1.5l-1.716.3-1.924.339-.187.033-3.309.583,3.781-2.183.36-.208,1.766-1.02.1-.059.412-.238,1.766-1.02,4.307-2.487.01.013a6.127,6.127,0,0,0,3.987,2.3l.1.013a6.213,6.213,0,0,0,2.9-.332A6.1,6.1,0,0,0,30.5,34.726a6.207,6.207,0,0,0,.87-.9l.011-.013.857.495,3.517,2.031,1.7.982.485.28.1.055.291.168h0Zm-21.2-14.2q-.037.106-.079.21c-.049.122-.1.243-.163.36a4.467,4.467,0,0,1-.463.723c-.046.059-.094.117-.143.173a4.434,4.434,0,0,1-2.527,1.46c-.073.014-.147.026-.22.036a4.533,4.533,0,0,1-.771.041,4.712,4.712,0,0,1-.482-.041c-.074-.01-.147-.022-.22-.036a4.44,4.44,0,0,1-2.526-1.46c-.049-.056-.1-.115-.143-.173a4.26,4.26,0,0,1-.277-.4,4.411,4.411,0,0,1-.35-.687c-.028-.069-.054-.139-.078-.209a4.489,4.489,0,0,1,0-2.919c.025-.071.051-.141.079-.21a4.4,4.4,0,0,1,.4-.765c.07-.109.146-.215.227-.318q.07-.089.143-.173a4.438,4.438,0,0,1,2.527-1.46c.073-.014.147-.026.22-.036.128-.018.258-.031.389-.037.079,0,.159-.006.238-.006a4.571,4.571,0,0,1,.627.044c.074.01.147.022.22.036A4.433,4.433,0,0,1,29.89,27.1c.049.056.1.115.143.173l.03.038A4.359,4.359,0,0,1,30.5,28q.09.175.163.359c.028.069.054.139.078.209a4.475,4.475,0,0,1,0,2.919" transform="translate(0.001)"/><text class="c" transform="translate(55.336 38.571)"><tspan x="0" y="0">AltUni</tspan></text></svg>