<svg width="91" height="46" viewBox="0 0 91 46" fill="none" xmlns="http://www.w3.org/2000/svg">
<path d="M91 17H0V46H91V17Z" fill="#CE2028"/>
<path d="M7.64062 23.9976H10.1722V38.5614H7.64062V23.9976Z" fill="white"/>
<path d="M12.0781 28.0167H14.2663V29.5664L14.307 29.6073C14.6391 29.0335 15.1156 28.5578 15.6885 28.2282C16.2613 27.8987 16.9104 27.7268 17.5702 27.73C19.8389 27.73 21.2785 28.9545 21.2785 31.32V38.5614H18.9682V31.9319C18.9275 30.2798 18.2798 29.5664 16.9208 29.5664C15.3812 29.5664 14.3884 30.795 14.3884 32.3398V38.5647H12.0781V28.0167Z" fill="white"/>
<path d="M24.5803 35.1753C24.7023 36.5219 25.7155 37.0109 26.9516 37.0109C27.8223 37.0109 29.3424 36.8274 29.2822 35.6242C29.2203 34.3997 27.5383 34.2572 25.8579 33.8705C24.1547 33.5036 22.493 32.8877 22.493 30.7499C22.493 28.4442 24.966 27.73 26.8702 27.73C29.0177 27.73 30.9634 28.631 31.2466 30.9743H28.8354C28.6336 29.8727 27.7206 29.5663 26.7082 29.5663C26.0402 29.5663 24.8024 29.7301 24.8024 30.6475C24.8024 31.7893 26.5056 31.9523 28.208 32.3397C29.89 32.7271 31.5924 33.3398 31.5924 35.4202C31.5924 37.929 29.0787 38.8464 26.9109 38.8464C24.2767 38.8464 22.3107 37.6637 22.2725 35.1753H24.5803Z" fill="white"/>
<path d="M32.5234 23.9976H34.8345V26.2009H32.5234V23.9976ZM32.5234 28.0167H34.8345V38.5614H32.5234V28.0167Z" fill="white"/>
<path d="M46.3441 38.5614H44.156V37.1338H44.1153C43.5074 38.337 42.1899 38.8465 40.8733 38.8465C37.5702 38.8465 35.9688 36.3786 35.9688 33.2178C35.9688 29.4026 38.2172 27.7301 40.5079 27.7301C41.8245 27.7301 43.2836 28.2215 43.9924 29.3829H44.0339V23.9976H46.3441V38.5614ZM41.1768 37.011C43.2437 37.011 44.1153 35.114 44.1153 33.2784C44.1153 30.9531 43.0012 29.5664 41.2175 29.5664C39.0488 29.5664 38.279 31.5035 38.279 33.4013C38.279 35.2164 39.1709 37.011 41.1768 37.011Z" fill="white"/>
<path d="M49.7683 33.8901C49.7683 35.5429 50.6634 37.0107 52.5847 37.0107C53.9217 37.0107 54.733 36.4193 55.1382 35.2571H57.3273C56.8211 37.5611 54.8746 38.8462 52.5847 38.8462C49.302 38.8462 47.458 36.5422 47.458 33.2987C47.458 30.3001 49.4037 27.729 52.5236 27.729C55.8275 27.729 57.8538 30.7276 57.4688 33.8892L49.7683 33.8901ZM55.1578 32.36C55.0764 30.8923 54.0844 29.5662 52.5236 29.5662C50.9238 29.5662 49.8293 30.7948 49.7683 32.36H55.1578Z" fill="white"/>
<path d="M58.6641 23.9976H61.1948V38.5614H58.6641V23.9976Z" fill="white"/>
<path d="M63.4258 23.9976H65.9582V38.5614H63.4258V23.9976Z" fill="white"/>
<path d="M68.1475 23.9976H71.7142L75.7056 35.3998H75.7471L79.6377 23.9976H83.1662V38.5614H80.7526V27.3205H80.7111L76.6992 38.5598H74.6111L70.5993 27.3205H70.5594V38.5614H68.1475V23.9976Z" fill="white"/>
<path d="M8.872 5.44V6.184H6.512V7.824H8.352V8.568H6.512V11H5.6V5.44H8.872ZM10.6292 7.232C10.7625 7.008 10.9385 6.83467 11.1572 6.712C11.3812 6.584 11.6452 6.52 11.9492 6.52V7.464H11.7172C11.3599 7.464 11.0879 7.55467 10.9012 7.736C10.7199 7.91733 10.6292 8.232 10.6292 8.68V11H9.71719V6.592H10.6292V7.232ZM14.6995 11.072C14.2835 11.072 13.9075 10.9787 13.5715 10.792C13.2355 10.6 12.9715 10.3333 12.7795 9.992C12.5875 9.64533 12.4915 9.24533 12.4915 8.792C12.4915 8.344 12.5902 7.94667 12.7875 7.6C12.9848 7.25333 13.2542 6.98667 13.5955 6.8C13.9368 6.61333 14.3182 6.52 14.7395 6.52C15.1608 6.52 15.5422 6.61333 15.8835 6.8C16.2248 6.98667 16.4942 7.25333 16.6915 7.6C16.8888 7.94667 16.9875 8.344 16.9875 8.792C16.9875 9.24 16.8862 9.63733 16.6835 9.984C16.4808 10.3307 16.2035 10.6 15.8515 10.792C15.5048 10.9787 15.1208 11.072 14.6995 11.072ZM14.6995 10.28C14.9342 10.28 15.1528 10.224 15.3555 10.112C15.5635 10 15.7315 9.832 15.8595 9.608C15.9875 9.384 16.0515 9.112 16.0515 8.792C16.0515 8.472 15.9902 8.20267 15.8675 7.984C15.7448 7.76 15.5822 7.592 15.3795 7.48C15.1768 7.368 14.9582 7.312 14.7235 7.312C14.4888 7.312 14.2702 7.368 14.0675 7.48C13.8702 7.592 13.7128 7.76 13.5955 7.984C13.4782 8.20267 13.4195 8.472 13.4195 8.792C13.4195 9.26667 13.5395 9.63467 13.7795 9.896C14.0248 10.152 14.3315 10.28 14.6995 10.28ZM23.2251 6.52C23.5717 6.52 23.8811 6.592 24.1531 6.736C24.4304 6.88 24.6464 7.09333 24.8011 7.376C24.9611 7.65867 25.0411 8 25.0411 8.4V11H24.1371V8.536C24.1371 8.14133 24.0384 7.84 23.8411 7.632C23.6437 7.41867 23.3744 7.312 23.0331 7.312C22.6917 7.312 22.4197 7.41867 22.2171 7.632C22.0197 7.84 21.9211 8.14133 21.9211 8.536V11H21.0171V8.536C21.0171 8.14133 20.9184 7.84 20.7211 7.632C20.5237 7.41867 20.2544 7.312 19.9131 7.312C19.5717 7.312 19.2997 7.41867 19.0971 7.632C18.8997 7.84 18.8011 8.14133 18.8011 8.536V11H17.8891V6.592H18.8011V7.096C18.9504 6.91467 19.1397 6.77333 19.3691 6.672C19.5984 6.57067 19.8437 6.52 20.1051 6.52C20.4571 6.52 20.7717 6.59467 21.0491 6.744C21.3264 6.89333 21.5397 7.10933 21.6891 7.392C21.8224 7.12533 22.0304 6.91467 22.3131 6.76C22.5957 6.6 22.8997 6.52 23.2251 6.52ZM29.3437 7.336V9.776C29.3437 9.94133 29.381 10.0613 29.4557 10.136C29.5357 10.2053 29.669 10.24 29.8557 10.24H30.4157V11H29.6957C29.285 11 28.9704 10.904 28.7517 10.712C28.533 10.52 28.4237 10.208 28.4237 9.776V7.336H27.9037V6.592H28.4237V5.496H29.3437V6.592H30.4157V7.336H29.3437ZM33.5363 6.52C33.8723 6.52 34.1709 6.592 34.4323 6.736C34.6989 6.88 34.9069 7.09333 35.0563 7.376C35.2109 7.65867 35.2883 8 35.2883 8.4V11H34.3843V8.536C34.3843 8.14133 34.2856 7.84 34.0883 7.632C33.8909 7.41867 33.6216 7.312 33.2803 7.312C32.9389 7.312 32.6669 7.41867 32.4643 7.632C32.2669 7.84 32.1683 8.14133 32.1683 8.536V11H31.2563V5.08H32.1683V7.104C32.3229 6.91733 32.5176 6.77333 32.7523 6.672C32.9923 6.57067 33.2536 6.52 33.5363 6.52ZM40.4916 8.688C40.4916 8.85333 40.4809 9.00267 40.4596 9.136H37.0916C37.1182 9.488 37.2489 9.77067 37.4836 9.984C37.7182 10.1973 38.0062 10.304 38.3476 10.304C38.8382 10.304 39.1849 10.0987 39.3876 9.688H40.3716C40.2382 10.0933 39.9956 10.4267 39.6436 10.688C39.2969 10.944 38.8649 11.072 38.3476 11.072C37.9262 11.072 37.5476 10.9787 37.2116 10.792C36.8809 10.6 36.6196 10.3333 36.4276 9.992C36.2409 9.64533 36.1476 9.24533 36.1476 8.792C36.1476 8.33867 36.2382 7.94133 36.4196 7.6C36.6062 7.25333 36.8649 6.98667 37.1956 6.8C37.5316 6.61333 37.9156 6.52 38.3476 6.52C38.7636 6.52 39.1342 6.61067 39.4596 6.792C39.7849 6.97333 40.0382 7.22933 40.2196 7.56C40.4009 7.88533 40.4916 8.26133 40.4916 8.688ZM39.5396 8.4C39.5342 8.064 39.4142 7.79467 39.1796 7.592C38.9449 7.38933 38.6542 7.288 38.3076 7.288C37.9929 7.288 37.7236 7.38933 37.4996 7.592C37.2756 7.78933 37.1422 8.05867 37.0996 8.4H39.5396ZM48.8032 6.52C49.1499 6.52 49.4592 6.592 49.7312 6.736C50.0085 6.88 50.2245 7.09333 50.3792 7.376C50.5392 7.65867 50.6192 8 50.6192 8.4V11H49.7152V8.536C49.7152 8.14133 49.6165 7.84 49.4192 7.632C49.2219 7.41867 48.9525 7.312 48.6112 7.312C48.2699 7.312 47.9979 7.41867 47.7952 7.632C47.5979 7.84 47.4992 8.14133 47.4992 8.536V11H46.5952V8.536C46.5952 8.14133 46.4965 7.84 46.2992 7.632C46.1019 7.41867 45.8325 7.312 45.4912 7.312C45.1499 7.312 44.8779 7.41867 44.6752 7.632C44.4779 7.84 44.3792 8.14133 44.3792 8.536V11H43.4672V6.592H44.3792V7.096C44.5285 6.91467 44.7179 6.77333 44.9472 6.672C45.1765 6.57067 45.4219 6.52 45.6832 6.52C46.0352 6.52 46.3499 6.59467 46.6272 6.744C46.9045 6.89333 47.1179 7.10933 47.2672 7.392C47.4005 7.12533 47.6085 6.91467 47.8912 6.76C48.1739 6.6 48.4779 6.52 48.8032 6.52ZM51.4757 8.776C51.4757 8.33333 51.5664 7.94133 51.7477 7.6C51.9344 7.25867 52.185 6.99467 52.4997 6.808C52.8197 6.616 53.1717 6.52 53.5557 6.52C53.9024 6.52 54.2037 6.58933 54.4597 6.728C54.721 6.86133 54.929 7.02933 55.0837 7.232V6.592H56.0037V11H55.0837V10.344C54.929 10.552 54.7184 10.7253 54.4517 10.864C54.185 11.0027 53.881 11.072 53.5397 11.072C53.161 11.072 52.8144 10.976 52.4997 10.784C52.185 10.5867 51.9344 10.3147 51.7477 9.968C51.5664 9.616 51.4757 9.21867 51.4757 8.776ZM55.0837 8.792C55.0837 8.488 55.0197 8.224 54.8917 8C54.769 7.776 54.6064 7.60533 54.4037 7.488C54.201 7.37067 53.9824 7.312 53.7477 7.312C53.513 7.312 53.2944 7.37067 53.0917 7.488C52.889 7.6 52.7237 7.768 52.5957 7.992C52.473 8.21067 52.4117 8.472 52.4117 8.776C52.4117 9.08 52.473 9.34667 52.5957 9.576C52.7237 9.80533 52.889 9.98133 53.0917 10.104C53.2997 10.2213 53.5184 10.28 53.7477 10.28C53.9824 10.28 54.201 10.2213 54.4037 10.104C54.6064 9.98667 54.769 9.816 54.8917 9.592C55.0197 9.36267 55.0837 9.096 55.0837 8.792ZM58.9456 8.8L60.9776 11H59.7456L58.1136 9.104V11H57.2016V5.08H58.1136V8.52L59.7136 6.592H60.9776L58.9456 8.8ZM65.6713 8.688C65.6713 8.85333 65.6606 9.00267 65.6393 9.136H62.2713C62.2979 9.488 62.4286 9.77067 62.6633 9.984C62.8979 10.1973 63.1859 10.304 63.5273 10.304C64.0179 10.304 64.3646 10.0987 64.5673 9.688H65.5512C65.4179 10.0933 65.1753 10.4267 64.8233 10.688C64.4766 10.944 64.0446 11.072 63.5273 11.072C63.1059 11.072 62.7273 10.9787 62.3913 10.792C62.0606 10.6 61.7993 10.3333 61.6073 9.992C61.4206 9.64533 61.3273 9.24533 61.3273 8.792C61.3273 8.33867 61.4179 7.94133 61.5993 7.6C61.7859 7.25333 62.0446 6.98667 62.3753 6.8C62.7113 6.61333 63.0953 6.52 63.5273 6.52C63.9433 6.52 64.3139 6.61067 64.6393 6.792C64.9646 6.97333 65.2179 7.22933 65.3993 7.56C65.5806 7.88533 65.6713 8.26133 65.6713 8.688ZM64.7193 8.4C64.7139 8.064 64.5939 7.79467 64.3593 7.592C64.1246 7.38933 63.8339 7.288 63.4873 7.288C63.1726 7.288 62.9033 7.38933 62.6793 7.592C62.4553 7.78933 62.3219 8.05867 62.2793 8.4H64.7193ZM67.4808 7.232C67.6141 7.008 67.7901 6.83467 68.0088 6.712C68.2328 6.584 68.4968 6.52 68.8008 6.52V7.464H68.5688C68.2114 7.464 67.9394 7.55467 67.7528 7.736C67.5714 7.91733 67.4808 8.232 67.4808 8.68V11H66.5688V6.592H67.4808V7.232ZM71.2391 11.072C70.8924 11.072 70.5804 11.0107 70.3031 10.888C70.0311 10.76 69.8151 10.5893 69.6551 10.376C69.4951 10.1573 69.4097 9.91467 69.3991 9.648H70.3431C70.3591 9.83467 70.4471 9.992 70.6071 10.12C70.7724 10.2427 70.9777 10.304 71.2231 10.304C71.4791 10.304 71.6764 10.256 71.8151 10.16C71.9591 10.0587 72.0311 9.93067 72.0311 9.776C72.0311 9.61067 71.9511 9.488 71.7911 9.408C71.6364 9.328 71.3884 9.24 71.0471 9.144C70.7164 9.05333 70.4471 8.96533 70.2391 8.88C70.0311 8.79467 69.8497 8.664 69.6951 8.488C69.5457 8.312 69.4711 8.08 69.4711 7.792C69.4711 7.55733 69.5404 7.344 69.6791 7.152C69.8177 6.95467 70.0151 6.8 70.2711 6.688C70.5324 6.576 70.8311 6.52 71.1671 6.52C71.6684 6.52 72.0711 6.648 72.3751 6.904C72.6844 7.15467 72.8497 7.49867 72.8711 7.936H71.9591C71.9431 7.73867 71.8631 7.58133 71.7191 7.464C71.5751 7.34667 71.3804 7.288 71.1351 7.288C70.8951 7.288 70.7111 7.33333 70.5831 7.424C70.4551 7.51467 70.3911 7.63467 70.3911 7.784C70.3911 7.90133 70.4337 8 70.5191 8.08C70.6044 8.16 70.7084 8.224 70.8311 8.272C70.9537 8.31467 71.1351 8.37067 71.3751 8.44C71.6951 8.52533 71.9564 8.61333 72.1591 8.704C72.3671 8.78933 72.5457 8.91733 72.6951 9.088C72.8444 9.25867 72.9217 9.48533 72.9271 9.768C72.9271 10.0187 72.8577 10.2427 72.7191 10.44C72.5804 10.6373 72.3831 10.792 72.1271 10.904C71.8764 11.016 71.5804 11.072 71.2391 11.072ZM77.9026 11.072C77.4866 11.072 77.1106 10.9787 76.7746 10.792C76.4386 10.6 76.1746 10.3333 75.9826 9.992C75.7906 9.64533 75.6946 9.24533 75.6946 8.792C75.6946 8.344 75.7933 7.94667 75.9906 7.6C76.188 7.25333 76.4573 6.98667 76.7986 6.8C77.14 6.61333 77.5213 6.52 77.9426 6.52C78.364 6.52 78.7453 6.61333 79.0866 6.8C79.428 6.98667 79.6973 7.25333 79.8946 7.6C80.092 7.94667 80.1906 8.344 80.1906 8.792C80.1906 9.24 80.0893 9.63733 79.8866 9.984C79.684 10.3307 79.4066 10.6 79.0546 10.792C78.708 10.9787 78.324 11.072 77.9026 11.072ZM77.9026 10.28C78.1373 10.28 78.356 10.224 78.5586 10.112C78.7666 10 78.9346 9.832 79.0626 9.608C79.1906 9.384 79.2546 9.112 79.2546 8.792C79.2546 8.472 79.1933 8.20267 79.0706 7.984C78.948 7.76 78.7853 7.592 78.5826 7.48C78.38 7.368 78.1613 7.312 77.9266 7.312C77.692 7.312 77.4733 7.368 77.2706 7.48C77.0733 7.592 76.916 7.76 76.7986 7.984C76.6813 8.20267 76.6226 8.472 76.6226 8.792C76.6226 9.26667 76.7426 9.63467 76.9826 9.896C77.228 10.152 77.5346 10.28 77.9026 10.28ZM82.9402 7.336H82.1242V11H81.2042V7.336H80.6842V6.592H81.2042V6.28C81.2042 5.77333 81.3375 5.40533 81.6042 5.176C81.8762 4.94133 82.3002 4.824 82.8762 4.824V5.584C82.5989 5.584 82.4042 5.63733 82.2922 5.744C82.1802 5.84533 82.1242 6.024 82.1242 6.28V6.592H82.9402V7.336Z" fill="white"/>
</svg>
